<svg viewBox="0 0 700 544" role="img" aria-label="費用（Claude Code が定価で計算）" font-family="-apple-system, BlinkMacSystemFont, Hiragino Sans, Noto Sans JP, sans-serif" font-size="12">
<text x="8" y="16" fill="var(--muted)">費用（Claude Code が定価で計算）（点 = 1 回の実行、縦線 = 中央値。左ほど少ない）</text>
<text x="8" y="56" fill="var(--ink)" font-weight="600">引き継ぎの 1 セッション目・large・sonnet</text>
<text x="252" y="49" text-anchor="end" fill="var(--accent)">agent-ws</text>
<line x1="260" x2="680" y1="45" y2="45" stroke="var(--line)"/>
<circle cx="389.0" cy="45" r="4.5" fill="var(--accent)" fill-opacity="0.55"/>
<circle cx="407.2" cy="45" r="4.5" fill="var(--accent)" fill-opacity="0.55"/>
<circle cx="397.5" cy="45" r="4.5" fill="var(--accent)" fill-opacity="0.55"/>
<circle cx="400.6" cy="45" r="4.5" fill="var(--accent)" fill-opacity="0.55"/>
<circle cx="388.7" cy="45" r="4.5" fill="var(--accent)" fill-opacity="0.55"/>
<line x1="397.5" x2="397.5" y1="36" y2="54" stroke="var(--accent)" stroke-width="2.5"/>
<text x="686" y="49" fill="var(--accent)" font-size="11">$0.20</text>
<text x="252" y="71" text-anchor="end" fill="var(--warn)">同じ構造・仕組みなし</text>
<line x1="260" x2="680" y1="67" y2="67" stroke="var(--line)"/>
<circle cx="491.5" cy="67" r="4.5" fill="var(--warn)" fill-opacity="0.55"/>
<circle cx="487.4" cy="67" r="4.5" fill="var(--warn)" fill-opacity="0.55"/>
<circle cx="476.6" cy="67" r="4.5" fill="var(--warn)" fill-opacity="0.55"/>
<circle cx="418.6" cy="67" r="4.5" fill="var(--warn)" fill-opacity="0.55"/>
<circle cx="599.5" cy="67" r="4.5" fill="var(--warn)" fill-opacity="0.55"/>
<line x1="487.4" x2="487.4" y1="58" y2="76" stroke="var(--warn)" stroke-width="2.5"/>
<text x="686" y="71" fill="var(--warn)" font-size="11">$0.32</text>
<text x="252" y="93" text-anchor="end" fill="var(--muted)">導入前（資料の山＋メモ）</text>
<line x1="260" x2="680" y1="89" y2="89" stroke="var(--line)"/>
<circle cx="483.9" cy="89" r="4.5" fill="var(--muted)" fill-opacity="0.55"/>
<circle cx="472.5" cy="89" r="4.5" fill="var(--muted)" fill-opacity="0.55"/>
<circle cx="454.7" cy="89" r="4.5" fill="var(--muted)" fill-opacity="0.55"/>
<circle cx="487.5" cy="89" r="4.5" fill="var(--muted)" fill-opacity="0.55"/>
<circle cx="461.9" cy="89" r="4.5" fill="var(--muted)" fill-opacity="0.55"/>
<line x1="472.5" x2="472.5" y1="80" y2="98" stroke="var(--muted)" stroke-width="2.5"/>
<text x="686" y="93" fill="var(--muted)" font-size="11">$0.30</text>
<text x="8" y="136" fill="var(--ink)" font-weight="600">引き継ぎの 2 セッション目・large・sonnet</text>
<text x="252" y="129" text-anchor="end" fill="var(--accent)">agent-ws</text>
<line x1="260" x2="680" y1="125" y2="125" stroke="var(--line)"/>
<circle cx="368.1" cy="125" r="4.5" fill="var(--accent)" fill-opacity="0.55"/>
<circle cx="372.7" cy="125" r="4.5" fill="var(--accent)" fill-opacity="0.55"/>
<circle cx="378.2" cy="125" r="4.5" fill="var(--accent)" fill-opacity="0.55"/>
<circle cx="371.9" cy="125" r="4.5" fill="var(--accent)" fill-opacity="0.55"/>
<circle cx="433.7" cy="125" r="4.5" fill="var(--accent)" fill-opacity="0.55"/>
<line x1="372.7" x2="372.7" y1="116" y2="134" stroke="var(--accent)" stroke-width="2.5"/>
<text x="686" y="129" fill="var(--accent)" font-size="11">$0.16</text>
<text x="252" y="151" text-anchor="end" fill="var(--warn)">同じ構造・仕組みなし</text>
<line x1="260" x2="680" y1="147" y2="147" stroke="var(--line)"/>
<circle cx="642.3" cy="147" r="4.5" fill="var(--warn)" fill-opacity="0.55"/>
<circle cx="657.9" cy="147" r="4.5" fill="var(--warn)" fill-opacity="0.55"/>
<circle cx="581.9" cy="147" r="4.5" fill="var(--warn)" fill-opacity="0.55"/>
<circle cx="474.2" cy="147" r="4.5" fill="var(--warn)" fill-opacity="0.55"/>
<circle cx="485.9" cy="147" r="4.5" fill="var(--warn)" fill-opacity="0.55"/>
<line x1="581.9" x2="581.9" y1="138" y2="156" stroke="var(--warn)" stroke-width="2.5"/>
<text x="686" y="151" fill="var(--warn)" font-size="11">$0.46</text>
<text x="252" y="173" text-anchor="end" fill="var(--muted)">導入前（資料の山＋メモ）</text>
<line x1="260" x2="680" y1="169" y2="169" stroke="var(--line)"/>
<circle cx="501.2" cy="169" r="4.5" fill="var(--muted)" fill-opacity="0.55"/>
<circle cx="466.1" cy="169" r="4.5" fill="var(--muted)" fill-opacity="0.55"/>
<circle cx="481.9" cy="169" r="4.5" fill="var(--muted)" fill-opacity="0.55"/>
<circle cx="412.3" cy="169" r="4.5" fill="var(--muted)" fill-opacity="0.55"/>
<circle cx="319.2" cy="169" r="4.5" fill="var(--muted)" fill-opacity="0.55"/>
<line x1="466.1" x2="466.1" y1="160" y2="178" stroke="var(--muted)" stroke-width="2.5"/>
<text x="686" y="173" fill="var(--muted)" font-size="11">$0.29</text>
<text x="8" y="216" fill="var(--ink)" font-weight="600">新規タスク（進め方の資料）・large・sonnet</text>
<text x="252" y="209" text-anchor="end" fill="var(--accent)">agent-ws</text>
<line x1="260" x2="680" y1="205" y2="205" stroke="var(--line)"/>
<circle cx="422.9" cy="205" r="4.5" fill="var(--accent)" fill-opacity="0.55"/>
<circle cx="404.0" cy="205" r="4.5" fill="var(--accent)" fill-opacity="0.55"/>
<circle cx="411.9" cy="205" r="4.5" fill="var(--accent)" fill-opacity="0.55"/>
<circle cx="396.8" cy="205" r="4.5" fill="var(--accent)" fill-opacity="0.55"/>
<circle cx="395.8" cy="205" r="4.5" fill="var(--accent)" fill-opacity="0.55"/>
<line x1="404.0" x2="404.0" y1="196" y2="214" stroke="var(--accent)" stroke-width="2.5"/>
<text x="686" y="209" fill="var(--accent)" font-size="11">$0.21</text>
<text x="252" y="231" text-anchor="end" fill="var(--warn)">同じ構造・仕組みなし</text>
<line x1="260" x2="680" y1="227" y2="227" stroke="var(--line)"/>
<circle cx="503.9" cy="227" r="4.5" fill="var(--warn)" fill-opacity="0.55"/>
<circle cx="497.8" cy="227" r="4.5" fill="var(--warn)" fill-opacity="0.55"/>
<circle cx="428.9" cy="227" r="4.5" fill="var(--warn)" fill-opacity="0.55"/>
<circle cx="476.0" cy="227" r="4.5" fill="var(--warn)" fill-opacity="0.55"/>
<circle cx="579.8" cy="227" r="4.5" fill="var(--warn)" fill-opacity="0.55"/>
<line x1="497.8" x2="497.8" y1="218" y2="236" stroke="var(--warn)" stroke-width="2.5"/>
<text x="686" y="231" fill="var(--warn)" font-size="11">$0.34</text>
<text x="252" y="253" text-anchor="end" fill="var(--muted)">導入前（資料の山＋メモ）</text>
<line x1="260" x2="680" y1="249" y2="249" stroke="var(--line)"/>
<circle cx="495.1" cy="249" r="4.5" fill="var(--muted)" fill-opacity="0.55"/>
<circle cx="530.1" cy="249" r="4.5" fill="var(--muted)" fill-opacity="0.55"/>
<circle cx="498.6" cy="249" r="4.5" fill="var(--muted)" fill-opacity="0.55"/>
<circle cx="491.8" cy="249" r="4.5" fill="var(--muted)" fill-opacity="0.55"/>
<circle cx="497.9" cy="249" r="4.5" fill="var(--muted)" fill-opacity="0.55"/>
<line x1="497.9" x2="497.9" y1="240" y2="258" stroke="var(--muted)" stroke-width="2.5"/>
<text x="686" y="253" fill="var(--muted)" font-size="11">$0.34</text>
<text x="8" y="296" fill="var(--ink)" font-weight="600">続きをやって（罠）・large・haiku</text>
<text x="252" y="289" text-anchor="end" fill="var(--accent)">agent-ws</text>
<line x1="260" x2="680" y1="285" y2="285" stroke="var(--line)"/>
<circle cx="304.0" cy="285" r="4.5" fill="var(--accent)" fill-opacity="0.55"/>
<circle cx="299.5" cy="285" r="4.5" fill="var(--accent)" fill-opacity="0.55"/>
<circle cx="307.0" cy="285" r="4.5" fill="var(--accent)" fill-opacity="0.55"/>
<circle cx="303.3" cy="285" r="4.5" fill="var(--accent)" fill-opacity="0.55"/>
<circle cx="306.2" cy="285" r="4.5" fill="var(--accent)" fill-opacity="0.55"/>
<line x1="304.0" x2="304.0" y1="276" y2="294" stroke="var(--accent)" stroke-width="2.5"/>
<text x="686" y="289" fill="var(--accent)" font-size="11">$0.06</text>
<text x="252" y="311" text-anchor="end" fill="var(--warn)">同じ構造・仕組みなし</text>
<line x1="260" x2="680" y1="307" y2="307" stroke="var(--line)"/>
<circle cx="272.9" cy="307" r="4.5" fill="var(--warn)" fill-opacity="0.55"/>
<circle cx="272.5" cy="307" r="4.5" fill="var(--warn)" fill-opacity="0.55"/>
<circle cx="272.4" cy="307" r="4.5" fill="var(--warn)" fill-opacity="0.55"/>
<circle cx="272.5" cy="307" r="4.5" fill="var(--warn)" fill-opacity="0.55"/>
<circle cx="272.6" cy="307" r="4.5" fill="var(--warn)" fill-opacity="0.55"/>
<line x1="272.5" x2="272.5" y1="298" y2="316" stroke="var(--warn)" stroke-width="2.5"/>
<text x="686" y="311" fill="var(--warn)" font-size="11">$0.02</text>
<text x="252" y="333" text-anchor="end" fill="var(--muted)">導入前（資料の山＋メモ）</text>
<line x1="260" x2="680" y1="329" y2="329" stroke="var(--line)"/>
<circle cx="272.6" cy="329" r="4.5" fill="var(--muted)" fill-opacity="0.55"/>
<circle cx="272.5" cy="329" r="4.5" fill="var(--muted)" fill-opacity="0.55"/>
<circle cx="272.5" cy="329" r="4.5" fill="var(--muted)" fill-opacity="0.55"/>
<circle cx="272.7" cy="329" r="4.5" fill="var(--muted)" fill-opacity="0.55"/>
<circle cx="272.7" cy="329" r="4.5" fill="var(--muted)" fill-opacity="0.55"/>
<line x1="272.6" x2="272.6" y1="320" y2="338" stroke="var(--muted)" stroke-width="2.5"/>
<text x="686" y="333" fill="var(--muted)" font-size="11">$0.02</text>
<text x="8" y="376" fill="var(--ink)" font-weight="600">続きをやって（罠）・large・sonnet</text>
<text x="252" y="369" text-anchor="end" fill="var(--accent)">agent-ws</text>
<line x1="260" x2="680" y1="365" y2="365" stroke="var(--line)"/>
<circle cx="356.0" cy="365" r="4.5" fill="var(--accent)" fill-opacity="0.55"/>
<circle cx="357.8" cy="365" r="4.5" fill="var(--accent)" fill-opacity="0.55"/>
<circle cx="358.6" cy="365" r="4.5" fill="var(--accent)" fill-opacity="0.55"/>
<circle cx="376.3" cy="365" r="4.5" fill="var(--accent)" fill-opacity="0.55"/>
<circle cx="360.3" cy="365" r="4.5" fill="var(--accent)" fill-opacity="0.55"/>
<line x1="358.6" x2="358.6" y1="356" y2="374" stroke="var(--accent)" stroke-width="2.5"/>
<text x="686" y="369" fill="var(--accent)" font-size="11">$0.14</text>
<text x="252" y="391" text-anchor="end" fill="var(--warn)">同じ構造・仕組みなし</text>
<line x1="260" x2="680" y1="387" y2="387" stroke="var(--line)"/>
<circle cx="299.0" cy="387" r="4.5" fill="var(--warn)" fill-opacity="0.55"/>
<circle cx="382.8" cy="387" r="4.5" fill="var(--warn)" fill-opacity="0.55"/>
<circle cx="371.5" cy="387" r="4.5" fill="var(--warn)" fill-opacity="0.55"/>
<circle cx="393.0" cy="387" r="4.5" fill="var(--warn)" fill-opacity="0.55"/>
<circle cx="358.5" cy="387" r="4.5" fill="var(--warn)" fill-opacity="0.55"/>
<line x1="371.5" x2="371.5" y1="378" y2="396" stroke="var(--warn)" stroke-width="2.5"/>
<text x="686" y="391" fill="var(--warn)" font-size="11">$0.16</text>
<text x="252" y="413" text-anchor="end" fill="var(--muted)">導入前（資料の山＋メモ）</text>
<line x1="260" x2="680" y1="409" y2="409" stroke="var(--line)"/>
<circle cx="332.8" cy="409" r="4.5" fill="var(--muted)" fill-opacity="0.55"/>
<circle cx="338.0" cy="409" r="4.5" fill="var(--muted)" fill-opacity="0.55"/>
<circle cx="340.1" cy="409" r="4.5" fill="var(--muted)" fill-opacity="0.55"/>
<circle cx="345.8" cy="409" r="4.5" fill="var(--muted)" fill-opacity="0.55"/>
<circle cx="361.5" cy="409" r="4.5" fill="var(--muted)" fill-opacity="0.55"/>
<line x1="340.1" x2="340.1" y1="400" y2="418" stroke="var(--muted)" stroke-width="2.5"/>
<text x="686" y="413" fill="var(--muted)" font-size="11">$0.11</text>
<text x="8" y="456" fill="var(--ink)" font-weight="600">続きをやって（罠）・small・sonnet</text>
<text x="252" y="449" text-anchor="end" fill="var(--accent)">agent-ws</text>
<line x1="260" x2="680" y1="445" y2="445" stroke="var(--line)"/>
<circle cx="368.0" cy="445" r="4.5" fill="var(--accent)" fill-opacity="0.55"/>
<circle cx="346.9" cy="445" r="4.5" fill="var(--accent)" fill-opacity="0.55"/>
<circle cx="376.5" cy="445" r="4.5" fill="var(--accent)" fill-opacity="0.55"/>
<circle cx="366.5" cy="445" r="4.5" fill="var(--accent)" fill-opacity="0.55"/>
<circle cx="358.8" cy="445" r="4.5" fill="var(--accent)" fill-opacity="0.55"/>
<line x1="366.5" x2="366.5" y1="436" y2="454" stroke="var(--accent)" stroke-width="2.5"/>
<text x="686" y="449" fill="var(--accent)" font-size="11">$0.15</text>
<text x="252" y="471" text-anchor="end" fill="var(--warn)">同じ構造・仕組みなし</text>
<line x1="260" x2="680" y1="467" y2="467" stroke="var(--line)"/>
<circle cx="422.8" cy="467" r="4.5" fill="var(--warn)" fill-opacity="0.55"/>
<circle cx="397.0" cy="467" r="4.5" fill="var(--warn)" fill-opacity="0.55"/>
<circle cx="394.8" cy="467" r="4.5" fill="var(--warn)" fill-opacity="0.55"/>
<circle cx="394.6" cy="467" r="4.5" fill="var(--warn)" fill-opacity="0.55"/>
<circle cx="298.8" cy="467" r="4.5" fill="var(--warn)" fill-opacity="0.55"/>
<line x1="394.8" x2="394.8" y1="458" y2="476" stroke="var(--warn)" stroke-width="2.5"/>
<text x="686" y="471" fill="var(--warn)" font-size="11">$0.19</text>
<text x="252" y="493" text-anchor="end" fill="var(--muted)">導入前（資料の山＋メモ）</text>
<line x1="260" x2="680" y1="489" y2="489" stroke="var(--line)"/>
<circle cx="296.7" cy="489" r="4.5" fill="var(--muted)" fill-opacity="0.55"/>
<circle cx="380.4" cy="489" r="4.5" fill="var(--muted)" fill-opacity="0.55"/>
<circle cx="347.2" cy="489" r="4.5" fill="var(--muted)" fill-opacity="0.55"/>
<circle cx="298.3" cy="489" r="4.5" fill="var(--muted)" fill-opacity="0.55"/>
<circle cx="331.5" cy="489" r="4.5" fill="var(--muted)" fill-opacity="0.55"/>
<line x1="331.5" x2="331.5" y1="480" y2="498" stroke="var(--muted)" stroke-width="2.5"/>
<text x="686" y="493" fill="var(--muted)" font-size="11">$0.10</text>
<line x1="260.0" x2="260.0" y1="514" y2="519" stroke="var(--muted)"/>
<text x="260.0" y="532" text-anchor="middle" fill="var(--muted)" font-size="11">$0.00</text>
<line x1="330.0" x2="330.0" y1="514" y2="519" stroke="var(--muted)"/>
<text x="330.0" y="532" text-anchor="middle" fill="var(--muted)" font-size="11">$0.10</text>
<line x1="400.0" x2="400.0" y1="514" y2="519" stroke="var(--muted)"/>
<text x="400.0" y="532" text-anchor="middle" fill="var(--muted)" font-size="11">$0.20</text>
<line x1="470.0" x2="470.0" y1="514" y2="519" stroke="var(--muted)"/>
<text x="470.0" y="532" text-anchor="middle" fill="var(--muted)" font-size="11">$0.30</text>
<line x1="540.0" x2="540.0" y1="514" y2="519" stroke="var(--muted)"/>
<text x="540.0" y="532" text-anchor="middle" fill="var(--muted)" font-size="11">$0.40</text>
<line x1="610.0" x2="610.0" y1="514" y2="519" stroke="var(--muted)"/>
<text x="610.0" y="532" text-anchor="middle" fill="var(--muted)" font-size="11">$0.50</text>
<line x1="680.0" x2="680.0" y1="514" y2="519" stroke="var(--muted)"/>
<text x="680.0" y="532" text-anchor="middle" fill="var(--muted)" font-size="11">$0.60</text>
<text x="680" y="532" fill="var(--muted)" font-size="11"> USD</text>
</svg>